<svg xmlns="http://www.w3.org/2000/svg" viewBox="0 0 192 192" width="192" height="192">
  <defs>
    <radialGradient id="bg" cx="50%" cy="40%" r="70%">
      <stop offset="0%" stop-color="#1a1a2e"/>
      <stop offset="100%" stop-color="#0a0a14"/>
    </radialGradient>
    <linearGradient id="g" x1="0%" y1="0%" x2="100%" y2="100%">
      <stop offset="0%" stop-color="#ff6b57"/>
      <stop offset="50%" stop-color="#c084fc"/>
      <stop offset="100%" stop-color="#38bdf8"/>
    </linearGradient>
    <linearGradient id="ig" x1="20%" y1="0%" x2="80%" y2="100%">
      <stop offset="0%" stop-color="#ff8a73"/>
      <stop offset="100%" stop-color="#a855f7"/>
    </linearGradient>
    <filter id="glow" x="-20%" y="-20%" width="140%" height="140%">
      <feGaussianBlur in="SourceGraphic" stdDeviation="6" result="blur"/>
      <feComposite in="SourceGraphic" in2="blur" operator="over"/>
    </filter>
  </defs>
  <rect width="192" height="192" rx="42" fill="url(#bg)"/>
  <circle cx="96" cy="88" r="50" fill="url(#g)" opacity="0.1" filter="url(#glow)"/>
  <g filter="url(#glow)">
    <circle cx="74" cy="96" r="28" fill="none" stroke="url(#g)" stroke-width="3.5"/>
    <circle cx="118" cy="96" r="28" fill="none" stroke="url(#g)" stroke-width="3.5"/>
    <ellipse cx="96" cy="96" rx="10" ry="20" fill="none" stroke="url(#ig)" stroke-width="2" opacity="0.7"/>
  </g>
  <g filter="url(#glow)">
    <circle cx="96" cy="96" r="6" fill="url(#g)"/>
    <line x1="96" y1="84" x2="96" y2="78" stroke="#ff8a73" stroke-width="1.5" stroke-linecap="round" opacity="0.8"/>
    <line x1="96" y1="108" x2="96" y2="114" stroke="#38bdf8" stroke-width="1.5" stroke-linecap="round" opacity="0.8"/>
    <line x1="84" y1="96" x2="78" y2="96" stroke="#c084fc" stroke-width="1.5" stroke-linecap="round" opacity="0.8"/>
    <line x1="108" y1="96" x2="114" y2="96" stroke="#c084fc" stroke-width="1.5" stroke-linecap="round" opacity="0.8"/>
  </g>
  <circle cx="54" cy="72" r="3" fill="#ff6b57" opacity="0.9"/>
  <circle cx="138" cy="72" r="3" fill="#38bdf8" opacity="0.9"/>
  <circle cx="54" cy="120" r="3" fill="#a855f7" opacity="0.9"/>
  <circle cx="138" cy="120" r="3" fill="#34d399" opacity="0.9"/>
  <text x="96" y="162" text-anchor="middle" font-family="system-ui, -apple-system, sans-serif" font-weight="700" font-size="18" fill="url(#g)" letter-spacing="2" opacity="0.85">ChainMind</text>
</svg>
